# xmcd
#
# Track frame offsets:
#	182
#	13752
#	29482
#	50220
#	65255
#	81085
#	93785
#	109695
#	124240
#	138142
#	151207
#	168327
#	185525
#	200037
#	218645
#	236400
#	251405
#	278020
#	292282
#
# Disc length: 4089 seconds
#
# Revision: 0
# Processed by: cddbd v1.5.2PL0 Copyright (c) Steve Scherf et al.
# Submitted via: dBpowerAMP V4.0
#
DISCID=0f0ff713
DTITLE=Various Artist - Greatest Hits Of The 70's [CD2]
DYEAR=1995
DGENRE=Other
TTITLE0=Mud - Lucy
TTITLE1=Paper Lace - The night Chicago died
TTITLE2=Melanie - Ruby Tuesday
TTITLE3=Bay City Rollers - I only want to be with you
TTITLE4=Bonnie Tyler - It's a heartache
TTITLE5=Jim Gilstrap - Swing your daddy
TTITLE6=Earth and Fire - Weekend
TTITLE7=Gladys Knight and the Pips - Baby don't change your mind
TTITLE8=KC and the Sunshine Band - That's the way i like it
TTITLE9=Chicory Tip - Son of my father
TTITLE10=Lulu and David Bowie - The man who sold the world
TTITLE11=Anita Meijer - The alternative way
TTITLE12=Sandy Coast - True love that's a wonder
TTITLE13=Don McLean - American pie
TTITLE14=Stories - Brother Louie
TTITLE15=Focus - Hocus pocus
TTITLE16=Duncan Browne - The wild places
TTITLE17=Teach In - Fly away
TTITLE18=Tony Ronald - Help (give me some help)
EXTD=
EXTT0=
EXTT1=
EXTT2=
EXTT3=
EXTT4=
EXTT5=
EXTT6=
EXTT7=
EXTT8=
EXTT9=
EXTT10=
EXTT11=
EXTT12=
EXTT13=
EXTT14=
EXTT15=
EXTT16=
EXTT17=
EXTT18=
PLAYORDER=
